<?xml version="1.0" encoding="UTF-8"?>
<svg width="60px" height="60px" viewBox="0 0 60 60" version="1.1" xmlns="http://www.w3.org/2000/svg" xmlns:xlink="http://www.w3.org/1999/xlink">
    <!-- Generator: Sketch 61 (89581) - https://sketch.com -->
    <title>IMG/服務項目/網頁設計</title>
    <desc>Created with Sketch.</desc>
    <g id="IMG/服務項目/網頁設計" stroke="none" stroke-width="1" fill="none" fill-rule="evenodd">
        <g id="Group-25" transform="translate(6.000000, 9.000000)">
            <path d="M35.1536,29.8966 L6.8566,29.8966 C3.2226,29.8966 0.2506,26.9236 0.2506,23.2906 L0.2506,6.8566 C0.2506,3.2226 3.2226,0.2506 6.8566,0.2506 L35.1536,0.2506 C38.7876,0.2506 41.7596,3.2226 41.7596,6.8566 L41.7596,23.2906 C41.7596,26.9236 38.7876,29.8966 35.1536,29.8966 Z" id="Stroke-1" stroke="#A3B87E" stroke-width="2.5" stroke-linecap="round" stroke-linejoin="round"></path>
            <line x1="0.2503" y1="23.2901" x2="41.7603" y2="23.2901" id="Stroke-3" stroke="#A3B87E" stroke-width="2.5" stroke-linecap="round" stroke-linejoin="round"></line>
            <path d="M13.1555,5.6119 C11.3535,7.1569 9.5515,8.7009 7.7505,10.2459 C7.4895,10.4689 7.2295,10.6919 6.9685,10.9149 C6.8055,11.0549 6.6215,11.3149 6.6835,11.5489 C6.7475,11.7839 7.0365,11.9159 7.2485,11.9559 C7.9415,12.0889 8.7605,11.8669 9.2975,11.4069 C11.0985,9.8629 12.9005,8.3179 14.7035,6.7739 C14.9635,6.5499 15.2235,6.3279 15.4835,6.1049 C15.6475,5.9649 15.8315,5.7039 15.7685,5.4699 C15.7055,5.2359 15.4165,5.1039 15.2045,5.0629 C14.5115,4.9309 13.6915,5.1529 13.1555,5.6119" id="Fill-5" fill="#A3B87E"></path>
            <path d="M13.4163,10.7335 C12.1453,12.0035 10.8763,13.2735 9.6063,14.5435 L9.0643,15.0855 C8.9003,15.2495 8.7203,15.4985 8.7873,15.7505 C8.8533,15.9925 9.1373,16.1405 9.3593,16.1875 C10.0233,16.3295 10.9163,16.1305 11.4083,15.6385 C12.6793,14.3685 13.9483,13.0985 15.2183,11.8285 L15.7603,11.2865 C15.9243,11.1225 16.1043,10.8735 16.0373,10.6215 C15.9723,10.3795 15.6873,10.2325 15.4653,10.1845 C14.8013,10.0425 13.9083,10.2405 13.4163,10.7335" id="Fill-7" fill="#A3B87E"></path>
            <line x1="21.0052" y1="29.8966" x2="21.0052" y2="39.0846" id="Stroke-9" stroke="#A3B87E" stroke-width="2.162" stroke-linecap="round" stroke-linejoin="round"></line>
            <line x1="14.3645" y1="39.0841" x2="27.6455" y2="39.0841" id="Stroke-11" stroke="#A3B87E" stroke-width="2.162" stroke-linecap="round" stroke-linejoin="round"></line>
            <path d="M46.8969118,40.3897 L33.7525683,40.3897 C32.6926257,40.3897 31.8254,39.6460667 31.8254,38.7360497 L31.8254,18.0433503 C31.8254,17.1344651 32.6926257,16.3897 33.7525683,16.3897 L46.8969118,16.3897 C47.9581743,16.3897 48.8254,17.1344651 48.8254,18.0433503 L48.8254,38.7360497 C48.8254,39.6460667 47.9581743,40.3897 46.8969118,40.3897" id="Fill-13" fill="#F4F6E3"></path>
            <path d="M46.2884,40.3897 L36.7514,40.3897 C35.9724,40.3897 35.3354,39.7517 35.3354,38.9737 L35.3354,21.0567 C35.3354,20.2777 35.9724,19.6397 36.7514,19.6397 L46.2884,19.6397 C47.0664,19.6397 47.7044,20.2777 47.7044,21.0567 L47.7044,38.9737 C47.7044,39.7517 47.0664,40.3897 46.2884,40.3897 Z" id="Stroke-17" stroke="#A3B87E" stroke-width="2" stroke-linecap="round" stroke-linejoin="round"></path>
            <line x1="35.3352" y1="23.2901" x2="46.9002" y2="23.2901" id="Stroke-19" stroke="#A3B87E" stroke-width="1.5" stroke-linecap="round" stroke-linejoin="round"></line>
            <line x1="35.3352" y1="35.295" x2="47.7042" y2="35.295" id="Stroke-21" stroke="#A3B87E" stroke-width="1.5" stroke-linecap="round" stroke-linejoin="round"></line>
            <path d="M42.8245,37.7325 C42.8245,37.1445 42.3475,36.6685 41.7605,36.6685 C41.1725,36.6685 40.6955,37.1445 40.6955,37.7325 C40.6955,38.3205 41.1725,38.7965 41.7605,38.7965 C42.3475,38.7965 42.8245,38.3205 42.8245,37.7325" id="Fill-23" fill="#A3B87E"></path>
        </g>
    </g>
</svg>